<svg width="32" height="33" viewBox="0 0 32 33" fill="none" xmlns="http://www.w3.org/2000/svg">
<path d="M20.8863 27.4826C20.8863 25.3932 19.1056 23.6994 16.909 23.6994C14.7124 23.6994 12.9318 25.3932 12.9318 27.4826C12.9318 29.5721 14.7124 31.2659 16.909 31.2659C19.1056 31.2659 20.8863 29.5721 20.8863 27.4826Z" stroke="#B0B0B0" stroke-width="2" stroke-linecap="round" stroke-linejoin="round"/>
<path d="M12.932 16.133C12.932 14.0435 11.1514 12.3497 8.95479 12.3497C6.75822 12.3497 4.97754 14.0435 4.97754 16.133C4.97754 18.2224 6.75822 19.9162 8.95479 19.9162C11.1514 19.9162 12.932 18.2224 12.932 16.133Z" stroke="#B0B0B0" stroke-width="2" stroke-linecap="round" stroke-linejoin="round"/>
<path d="M26.1899 4.78306C26.1899 2.69363 24.4092 0.999818 22.2126 0.999818C20.016 0.999818 18.2354 2.69363 18.2354 4.78306C18.2354 6.87248 20.016 8.5663 22.2126 8.5663C24.4092 8.5663 26.1899 6.87248 26.1899 4.78306Z" stroke="#B0B0B0" stroke-width="2" stroke-linecap="round" stroke-linejoin="round"/>
<path d="M1 27.4829L12.9318 27.4829" stroke="#B0B0B0" stroke-width="2" stroke-linecap="round" stroke-linejoin="round"/>
<path d="M1 4.78291L18.2348 4.78291" stroke="#B0B0B0" stroke-width="2" stroke-linecap="round" stroke-linejoin="round"/>
<path d="M1 16.1326L4.97725 16.1326" stroke="#B0B0B0" stroke-width="2" stroke-linecap="round" stroke-linejoin="round"/>
<path d="M20.8867 27.4829L30.167 27.4829" stroke="#B0B0B0" stroke-width="2" stroke-linecap="round" stroke-linejoin="round"/>
<path d="M26.1895 4.78291L30.1667 4.78291" stroke="#B0B0B0" stroke-width="2" stroke-linecap="round" stroke-linejoin="round"/>
<path d="M12.9316 16.1326L30.1664 16.1326" stroke="#B0B0B0" stroke-width="2" stroke-linecap="round" stroke-linejoin="round"/>
</svg>
